<svg xmlns="http://www.w3.org/2000/svg" style="min-width: 1178px; min-height: 476px; margin-top: 0px; background-color: rgb(255, 255, 255);" width="1519" height="2097"><g id="tree__group" transform="translate(278,1028.75)scale(1)"><path class="mindmap__link" fill="none" d="M242,0C272,0,272,-722.25,302,-722.25" stroke="#00B548"/><path class="mindmap__link" fill="none" d="M242,0C272,0,272,-205.25,302,-205.25" stroke="#00B548"/><path class="mindmap__link" fill="none" d="M242,0C272,0,272,237.25,302,237.25" stroke="#00B548"/><path class="mindmap__link" fill="none" d="M242,0C272,0,272,722.25,302,722.25" stroke="#00B548"/><path class="mindmap__link" fill="none" d="M429,-722.25C459,-722.25,459,-959.25,489,-959.25" stroke="#00B548"/><path class="mindmap__link" fill="none" d="M429,-722.25C459,-722.25,459,-873.25,489,-873.25" stroke="#00B548"/><path class="mindmap__link" fill="none" d="M429,-722.25C459,-722.25,459,-797.75,489,-797.75" stroke="#00B548"/><path class="mindmap__link" fill="none" d="M429,-722.25C459,-722.25,459,-732.75,489,-732.75" stroke="#00B548"/><path class="mindmap__link" fill="none" d="M429,-722.25C459,-722.25,459,-657.25,489,-657.25" stroke="#00B548"/><path class="mindmap__link" fill="none" d="M429,-722.25C459,-722.25,459,-571.25,489,-571.25" stroke="#00B548"/><path class="mindmap__link" fill="none" d="M429,-722.25C459,-722.25,459,-485.25,489,-485.25" stroke="#00B548"/><path class="mindmap__link" fill="none" d="M463,-205.25C493,-205.25,493,-399.25,523,-399.25" stroke="#00B548"/><path class="mindmap__link" fill="none" d="M463,-205.25C493,-205.25,493,-323.75,523,-323.75" stroke="#00B548"/><path class="mindmap__link" fill="none" d="M463,-205.25C493,-205.25,493,-258.75,523,-258.75" stroke="#00B548"/><path class="mindmap__link" fill="none" d="M463,-205.25C493,-205.25,493,-183.25,523,-183.25" stroke="#00B548"/><path class="mindmap__link" fill="none" d="M463,-205.25C493,-205.25,493,-97.25,523,-97.25" stroke="#00B548"/><path class="mindmap__link" fill="none" d="M463,-205.25C493,-205.25,493,-11.25,523,-11.25" stroke="#00B548"/><path class="mindmap__link" fill="none" d="M440,237.25C470,237.25,470,64.25,500,64.25" stroke="#00B548"/><path class="mindmap__link" fill="none" d="M440,237.25C470,237.25,470,129.25,500,129.25" stroke="#00B548"/><path class="mindmap__link" fill="none" d="M440,237.25C470,237.25,470,194.25,500,194.25" stroke="#00B548"/><path class="mindmap__link" fill="none" d="M440,237.25C470,237.25,470,259.25,500,259.25" stroke="#00B548"/><path class="mindmap__link" fill="none" d="M440,237.25C470,237.25,470,334.75,500,334.75" stroke="#00B548"/><path class="mindmap__link" fill="none" d="M440,237.25C470,237.25,470,410.25,500,410.25" stroke="#00B548"/><path class="mindmap__link" fill="none" d="M477,722.25C507,722.25,507,485.75,537,485.75" stroke="#00B548"/><path class="mindmap__link" fill="none" d="M477,722.25C507,722.25,507,561.25,537,561.25" stroke="#00B548"/><path class="mindmap__link" fill="none" d="M477,722.25C507,722.25,507,626.25,537,626.25" stroke="#00B548"/><path class="mindmap__link" fill="none" d="M477,722.25C507,722.25,507,691.25,537,691.25" stroke="#00B548"/><path class="mindmap__link" fill="none" d="M477,722.25C507,722.25,507,766.75,537,766.75" stroke="#00B548"/><path class="mindmap__link" fill="none" d="M477,722.25C507,722.25,507,852.75,537,852.75" stroke="#00B548"/><path class="mindmap__link" fill="none" d="M477,722.25C507,722.25,507,948.75,537,948.75" stroke="#00B548"/><g class="node node--1" transform="translate(0,0)"><rect class="node__content-container" rx="8" width="242" height="48" y="-24" fill="#00B548"/><g class="node__content-text" transform="translate(20,5)"><text fill="#FFFFFF" y="2" style="font-size: 20px; user-select: none;">Java线程的阻塞和唤醒</text></g><rect class="drag-section" fill="transparent" width="267" height="88" y="-44"/><g class="node__circle-group" style="visibility: hidden;"><rect class="node__circle-count" rx="10" y="-12" width="45" x="242" fill="#F2F2F2" style="visibility: hidden;"/><text y="4" fill="#424242" x="270" style="visibility: hidden; user-select: none;"/><circle class="node__circle" r="12" cx="254" stroke="#F2F2F2" fill="#FFFFFF" stroke-width="2px"/><image class="node__circle-icon" width="12" height="12" y="-6" xmlns:xlink="http://www.w3.org/1999/xlink" xlink:href="data:image/svg+xml;charset=utf-8,%3Csvg%20version%3D%221.1%22%20id%3D%22Capa_1%22%20xmlns%3D%22http%3A%2F%2Fwww.w3.org%2F2000%2Fsvg%22%20xmlns%3Axlink%3D%22http%3A%2F%2Fwww.w3.org%2F1999%2Fxlink%22%20x%3D%220px%22%20y%3D%220px%22%0A%09%20viewBox%3D%220%200%2042%2042%22%20style%3D%22enable-background%3Anew%200%200%2042%2042%3B%22%20xml%3Aspace%3D%22preserve%22%3E%0A%3Crect%20y%3D%2219%22%20width%3D%2242%22%20height%3D%224%22%2F%3E%0A%3C%2Fsvg%3E" x="248"/></g></g><g class="node node--c36f4273-37aa-498e-b6f8-65d155f6b3b8" transform="translate(302,-722.25)"><rect class="node__content-container" rx="8" width="127" height="44" y="-22" fill="#F2F2F2"/><g class="node__content-text" transform="translate(20,5)"><text fill="#424242" y="0" style="font-size: 16px; user-select: none;">Object.wait</text></g><rect class="drag-section" fill="transparent" width="152" height="84" y="-42"/><g class="node__circle-group" style="visibility: hidden;"><rect class="node__circle-count" rx="10" y="-12" width="45" x="127" fill="#F2F2F2" style="visibility: hidden;"/><text y="4" fill="#424242" x="155" style="visibility: hidden; user-select: none;"/><circle class="node__circle" r="12" cx="139" stroke="#F2F2F2" fill="#FFFFFF" stroke-width="2px"/><image class="node__circle-icon" width="12" height="12" y="-6" xmlns:xlink="http://www.w3.org/1999/xlink" xlink:href="data:image/svg+xml;charset=utf-8,%3Csvg%20version%3D%221.1%22%20id%3D%22Capa_1%22%20xmlns%3D%22http%3A%2F%2Fwww.w3.org%2F2000%2Fsvg%22%20xmlns%3Axlink%3D%22http%3A%2F%2Fwww.w3.org%2F1999%2Fxlink%22%20x%3D%220px%22%20y%3D%220px%22%0A%09%20viewBox%3D%220%200%2042%2042%22%20style%3D%22enable-background%3Anew%200%200%2042%2042%3B%22%20xml%3Aspace%3D%22preserve%22%3E%0A%3Crect%20y%3D%2219%22%20width%3D%2242%22%20height%3D%224%22%2F%3E%0A%3C%2Fsvg%3E" x="133"/></g></g><g class="node node--5b467a2d-7448-460d-8fe8-e702fd5004d9" transform="translate(302,-205.25)"><rect class="node__content-container" rx="8" width="161" height="44" y="-22" fill="#F2F2F2"/><g class="node__content-text" transform="translate(20,5)"><text fill="#424242" y="0" style="font-size: 16px; user-select: none;">Condition.await</text></g><rect class="drag-section" fill="transparent" width="186" height="84" y="-42"/><g class="node__circle-group" style="visibility: hidden;"><rect class="node__circle-count" rx="10" y="-12" width="45" x="161" fill="#F2F2F2" style="visibility: hidden;"/><text y="4" fill="#424242" x="189" style="visibility: hidden; user-select: none;"/><circle class="node__circle" r="12" cx="173" stroke="#F2F2F2" fill="#FFFFFF" stroke-width="2px"/><image class="node__circle-icon" width="12" height="12" y="-6" xmlns:xlink="http://www.w3.org/1999/xlink" xlink:href="data:image/svg+xml;charset=utf-8,%3Csvg%20version%3D%221.1%22%20id%3D%22Capa_1%22%20xmlns%3D%22http%3A%2F%2Fwww.w3.org%2F2000%2Fsvg%22%20xmlns%3Axlink%3D%22http%3A%2F%2Fwww.w3.org%2F1999%2Fxlink%22%20x%3D%220px%22%20y%3D%220px%22%0A%09%20viewBox%3D%220%200%2042%2042%22%20style%3D%22enable-background%3Anew%200%200%2042%2042%3B%22%20xml%3Aspace%3D%22preserve%22%3E%0A%3Crect%20y%3D%2219%22%20width%3D%2242%22%20height%3D%224%22%2F%3E%0A%3C%2Fsvg%3E" x="167"/></g></g><g class="node node--d50111b9-4bed-411b-8c7d-d56204cfb566" transform="translate(302,237.25)"><rect class="node__content-container" rx="8" width="138" height="44" y="-22" fill="#F2F2F2"/><g class="node__content-text" transform="translate(20,5)"><text fill="#424242" y="0" style="font-size: 16px; user-select: none;">Thread.sleep</text></g><rect class="drag-section" fill="transparent" width="163" height="84" y="-42"/><g class="node__circle-group" style="visibility: hidden;"><rect class="node__circle-count" rx="10" y="-12" width="45" x="138" fill="#F2F2F2" style="visibility: hidden;"/><text y="4" fill="#424242" x="166" style="visibility: hidden; user-select: none;"/><circle class="node__circle" r="12" cx="150" stroke="#F2F2F2" fill="#FFFFFF" stroke-width="2px"/><image class="node__circle-icon" width="12" height="12" y="-6" xmlns:xlink="http://www.w3.org/1999/xlink" xlink:href="data:image/svg+xml;charset=utf-8,%3Csvg%20version%3D%221.1%22%20id%3D%22Capa_1%22%20xmlns%3D%22http%3A%2F%2Fwww.w3.org%2F2000%2Fsvg%22%20xmlns%3Axlink%3D%22http%3A%2F%2Fwww.w3.org%2F1999%2Fxlink%22%20x%3D%220px%22%20y%3D%220px%22%0A%09%20viewBox%3D%220%200%2042%2042%22%20style%3D%22enable-background%3Anew%200%200%2042%2042%3B%22%20xml%3Aspace%3D%22preserve%22%3E%0A%3Crect%20y%3D%2219%22%20width%3D%2242%22%20height%3D%224%22%2F%3E%0A%3C%2Fsvg%3E" x="144"/></g></g><g class="node node--a469fcea-888a-4bb8-98c4-d1649a4179db" transform="translate(302,722.25)"><rect class="node__content-container" rx="8" width="175" height="44" y="-22" fill="#F2F2F2"/><g class="node__content-text" transform="translate(20,5)"><text fill="#424242" y="0" style="font-size: 16px; user-select: none;">LockSupport.park</text></g><rect class="drag-section" fill="transparent" width="200" height="84" y="-42"/><g class="node__circle-group" style="visibility: hidden;"><rect class="node__circle-count" rx="10" y="-12" width="45" x="175" fill="#F2F2F2" style="visibility: hidden;"/><text y="4" fill="#424242" x="203" style="visibility: hidden; user-select: none;"/><circle class="node__circle" r="12" cx="187" stroke="#F2F2F2" fill="#FFFFFF" stroke-width="2px"/><image class="node__circle-icon" width="12" height="12" y="-6" xmlns:xlink="http://www.w3.org/1999/xlink" xlink:href="data:image/svg+xml;charset=utf-8,%3Csvg%20version%3D%221.1%22%20id%3D%22Capa_1%22%20xmlns%3D%22http%3A%2F%2Fwww.w3.org%2F2000%2Fsvg%22%20xmlns%3Axlink%3D%22http%3A%2F%2Fwww.w3.org%2F1999%2Fxlink%22%20x%3D%220px%22%20y%3D%220px%22%0A%09%20viewBox%3D%220%200%2042%2042%22%20style%3D%22enable-background%3Anew%200%200%2042%2042%3B%22%20xml%3Aspace%3D%22preserve%22%3E%0A%3Crect%20y%3D%2219%22%20width%3D%2242%22%20height%3D%224%22%2F%3E%0A%3C%2Fsvg%3E" x="181"/></g></g><g class="node node--a849ceb4-8b80-428b-ad39-079da9a0ed52" transform="translate(489,-959.25)"><rect class="node__content-container" rx="8" width="401" height="59" y="-29.5" fill="transparent"/><g class="node__content-text" transform="translate(20,-5.5)"><text fill="#424242" y="0" style="font-size: 14px; user-select: none;">可以指定等待时间，也可不指定，不指定默认等待直到被</text><text fill="#424242" y="19.25" style="font-size: 14px; user-select: none;">唤醒</text></g><rect class="drag-section" fill="transparent" width="426" height="99" y="-49.5"/></g><g class="node node--21c93fe8-589d-4bcb-8c45-6b752442423e" transform="translate(489,-873.25)"><rect class="node__content-container" rx="8" width="401" height="59" y="-29.5" fill="transparent"/><g class="node__content-text" transform="translate(20,-5.5)"><text fill="#424242" y="0" style="font-size: 14px; user-select: none;">必须在synchronized代码块内调用，必须先获取目标对象</text><text fill="#424242" y="19.25" style="font-size: 14px; user-select: none;">上面的锁</text></g><rect class="drag-section" fill="transparent" width="426" height="99" y="-49.5"/></g><g class="node node--8dfea4f1-4ea6-4646-ba8d-00dab8f1c86d" transform="translate(489,-797.75)"><rect class="node__content-container" rx="8" width="348" height="38" y="-19" fill="transparent"/><g class="node__content-text" transform="translate(20,5)"><text fill="#424242" y="0" style="font-size: 14px; user-select: none;">调用后状态转为 TIMED _ WAITING或WAITING</text></g><rect class="drag-section" fill="transparent" width="373" height="78" y="-39"/></g><g class="node node--11f3bd70-ea20-4d97-8fd1-b465578df375" transform="translate(489,-732.75)"><rect class="node__content-container" rx="8" width="83" height="38" y="-19" fill="transparent"/><g class="node__content-text" transform="translate(20,5)"><text fill="#424242" y="0" style="font-size: 14px; user-select: none;">释放锁</text></g><rect class="drag-section" fill="transparent" width="108" height="78" y="-39"/></g><g class="node node--bc70e4b4-4d0a-43d8-b21a-60e10e420649" transform="translate(489,-657.25)"><rect class="node__content-container" rx="8" width="401" height="59" y="-29.5" fill="transparent"/><g class="node__content-text" transform="translate(20,-5.5)"><text fill="#424242" y="0" style="font-size: 14px; user-select: none;">可以响应中断，抛InterruptedException异常，清空中断</text><text fill="#424242" y="19.25" style="font-size: 14px; user-select: none;">状态，调用该方法需要显式捕获异常</text></g><rect class="drag-section" fill="transparent" width="426" height="99" y="-49.5"/></g><g class="node node--866df374-ef5e-4a35-b41b-bc7fa314218b" transform="translate(489,-571.25)"><rect class="node__content-container" rx="8" width="401" height="59" y="-29.5" fill="transparent"/><g class="node__content-text" transform="translate(20,-5.5)"><text fill="#424242" y="0" style="font-size: 14px; user-select: none;">当 ① 等待时间到②线程被notify③线程被 中断④发生虚假</text><text fill="#424242" y="19.25" style="font-size: 14px; user-select: none;">唤醒时会返回(唤醒)</text></g><rect class="drag-section" fill="transparent" width="426" height="99" y="-49.5"/></g><g class="node node--e94fee5b-f79a-41c7-a85e-b2c24451225b" transform="translate(489,-485.25)"><rect class="node__content-container" rx="8" width="401" height="59" y="-29.5" fill="transparent"/><g class="node__content-text" transform="translate(20,-5.5)"><text fill="#424242" y="0" style="font-size: 14px; user-select: none;">相比于LockSupport .park，它会发生唤醒信号丢失的情</text><text fill="#424242" y="19.25" style="font-size: 14px; user-select: none;">况，如果notify在wait之前被调用，则会丢失唤醒信号</text></g><rect class="drag-section" fill="transparent" width="426" height="99" y="-49.5"/></g><g class="node node--d6b308e5-5d30-46c2-9cdd-479799f444b0" transform="translate(523,-399.25)"><rect class="node__content-container" rx="8" width="401" height="59" y="-29.5" fill="transparent"/><g class="node__content-text" transform="translate(20,-5.5)"><text fill="#424242" y="0" style="font-size: 14px; user-select: none;">可以指定等待时间，也可不指定，不指定默认等待直到被</text><text fill="#424242" y="19.25" style="font-size: 14px; user-select: none;">唤醒</text></g><rect class="drag-section" fill="transparent" width="426" height="99" y="-49.5"/></g><g class="node node--e3e362c4-9d72-4a2d-bc8d-d98a51c06686" transform="translate(523,-323.75)"><rect class="node__content-container" rx="8" width="153" height="38" y="-19" fill="transparent"/><g class="node__content-text" transform="translate(20,5)"><text fill="#424242" y="0" style="font-size: 14px; user-select: none;">必须在加锁后调用</text></g><rect class="drag-section" fill="transparent" width="178" height="78" y="-39"/></g><g class="node node--030d3e43-649b-4f38-955e-2c13f93e2f65" transform="translate(523,-258.75)"><rect class="node__content-container" rx="8" width="348" height="38" y="-19" fill="transparent"/><g class="node__content-text" transform="translate(20,5)"><text fill="#424242" y="0" style="font-size: 14px; user-select: none;">调用后状态转为 TIMED _ WAITING 或 WAITING</text></g><rect class="drag-section" fill="transparent" width="373" height="78" y="-39"/></g><g class="node node--87e68e13-b4c2-45d8-8bd3-d5f529e87a32" transform="translate(523,-183.25)"><rect class="node__content-container" rx="8" width="401" height="59" y="-29.5" fill="transparent"/><g class="node__content-text" transform="translate(20,-5.5)"><text fill="#424242" y="0" style="font-size: 14px; user-select: none;">可以响应中断，抛InterruptedException异常，清空中断</text><text fill="#424242" y="19.25" style="font-size: 14px; user-select: none;">状态，调用该方法需要显式捕获异常</text></g><rect class="drag-section" fill="transparent" width="426" height="99" y="-49.5"/></g><g class="node node--dc4f37ed-f69a-4e96-afd0-06a80a07fd57" transform="translate(523,-97.25)"><rect class="node__content-container" rx="8" width="401" height="59" y="-29.5" fill="transparent"/><g class="node__content-text" transform="translate(20,-5.5)"><text fill="#424242" y="0" style="font-size: 14px; user-select: none;">当 ① 等待时间到 ② 线程被notify ③ 线程被中断 ④ 发生</text><text fill="#424242" y="19.25" style="font-size: 14px; user-select: none;">虚假唤醒 时会返回 (唤醒)</text></g><rect class="drag-section" fill="transparent" width="426" height="99" y="-49.5"/></g><g class="node node--514afbbf-672f-44b5-8017-87e62c200747" transform="translate(523,-11.25)"><rect class="node__content-container" rx="8" width="401" height="59" y="-29.5" fill="transparent"/><g class="node__content-text" transform="translate(20,-5.5)"><text fill="#424242" y="0" style="font-size: 14px; user-select: none;">相比于LockSupport .park，它会发生唤醒信号丢失的情</text><text fill="#424242" y="19.25" style="font-size: 14px; user-select: none;">况，如signal在await之前被调用，则会丢失唤醒信号</text></g><rect class="drag-section" fill="transparent" width="426" height="99" y="-49.5"/></g><g class="node node--f61770dd-e397-4549-ad69-25ef9bf9f0b5" transform="translate(500,64.25)"><rect class="node__content-container" rx="8" width="153" height="38" y="-19" fill="transparent"/><g class="node__content-text" transform="translate(20,5)"><text fill="#424242" y="0" style="font-size: 14px; user-select: none;">必须指定休眠时间</text></g><rect class="drag-section" fill="transparent" width="178" height="78" y="-39"/></g><g class="node node--413749ef-3d2d-4b2a-ae92-94c4488cb047" transform="translate(500,129.25)"><rect class="node__content-container" rx="8" width="167" height="38" y="-19" fill="transparent"/><g class="node__content-text" transform="translate(20,5)"><text fill="#424242" y="0" style="font-size: 14px; user-select: none;">可以在任何地方调用</text></g><rect class="drag-section" fill="transparent" width="192" height="78" y="-39"/></g><g class="node node--9ce56b69-962a-44ab-b151-96c400996b35" transform="translate(500,194.25)"><rect class="node__content-container" rx="8" width="260" height="38" y="-19" fill="transparent"/><g class="node__content-text" transform="translate(20,5)"><text fill="#424242" y="0" style="font-size: 14px; user-select: none;">调用后状态转为TIMED _ WAITING</text></g><rect class="drag-section" fill="transparent" width="285" height="78" y="-39"/></g><g class="node node--a01818f5-cbf9-48e8-825d-740ff059aef6" transform="translate(500,259.25)"><rect class="node__content-container" rx="8" width="97" height="38" y="-19" fill="transparent"/><g class="node__content-text" transform="translate(20,5)"><text fill="#424242" y="0" style="font-size: 14px; user-select: none;">不释放锁</text></g><rect class="drag-section" fill="transparent" width="122" height="78" y="-39"/></g><g class="node node--65f02b4a-0bd7-41b3-8a67-9a3a3057c7f2" transform="translate(500,334.75)"><rect class="node__content-container" rx="8" width="401" height="59" y="-29.5" fill="transparent"/><g class="node__content-text" transform="translate(20,-5.5)"><text fill="#424242" y="0" style="font-size: 14px; user-select: none;">可以响应中断，抛出InterruptedException异常，清空中</text><text fill="#424242" y="19.25" style="font-size: 14px; user-select: none;">断状态，调用该方法需要显式捕获异常</text></g><rect class="drag-section" fill="transparent" width="426" height="99" y="-49.5"/></g><g class="node node--8921d8a9-5aeb-4050-b422-4a3b69efa2a5" transform="translate(500,410.25)"><rect class="node__content-container" rx="8" width="290" height="38" y="-19" fill="transparent"/><g class="node__content-text" transform="translate(20,5)"><text fill="#424242" y="0" style="font-size: 14px; user-select: none;">仅当 ①时 间到②线程 被中断时才 返回</text></g><rect class="drag-section" fill="transparent" width="315" height="78" y="-39"/></g><g class="node node--5bea0433-d1bc-476a-bcf1-5a0874ffc933" transform="translate(537,485.75)"><rect class="node__content-container" rx="8" width="401" height="59" y="-29.5" fill="transparent"/><g class="node__content-text" transform="translate(20,-5.5)"><text fill="#424242" y="0" style="font-size: 14px; user-select: none;">可以指定等待时间，也可不指定，不指定默认等待直到被</text><text fill="#424242" y="19.25" style="font-size: 14px; user-select: none;">唤醒</text></g><rect class="drag-section" fill="transparent" width="426" height="99" y="-49.5"/></g><g class="node node--42f7ac75-e28e-407f-80af-dc1dd71a080c" transform="translate(537,561.25)"><rect class="node__content-container" rx="8" width="167" height="38" y="-19" fill="transparent"/><g class="node__content-text" transform="translate(20,5)"><text fill="#424242" y="0" style="font-size: 14px; user-select: none;">可以在任何地方调用</text></g><rect class="drag-section" fill="transparent" width="192" height="78" y="-39"/></g><g class="node node--df3e10d2-9932-428b-a64a-052db8e14c5d" transform="translate(537,626.25)"><rect class="node__content-container" rx="8" width="348" height="38" y="-19" fill="transparent"/><g class="node__content-text" transform="translate(20,5)"><text fill="#424242" y="0" style="font-size: 14px; user-select: none;">调用后状态转为 TIMED _ WAITING 或 WAITING</text></g><rect class="drag-section" fill="transparent" width="373" height="78" y="-39"/></g><g class="node node--aa0e61aa-3099-434e-be2f-e6f28f54ee7a" transform="translate(537,691.25)"><rect class="node__content-container" rx="8" width="97" height="38" y="-19" fill="transparent"/><g class="node__content-text" transform="translate(20,5)"><text fill="#424242" y="0" style="font-size: 14px; user-select: none;">不释放锁</text></g><rect class="drag-section" fill="transparent" width="122" height="78" y="-39"/></g><g class="node node--86fd4936-605b-428c-91ba-7f1ee0086b55" transform="translate(537,766.75)"><rect class="node__content-container" rx="8" width="401" height="59" y="-29.5" fill="transparent"/><g class="node__content-text" transform="translate(20,-5.5)"><text fill="#424242" y="0" style="font-size: 14px; user-select: none;">可响应中断，直接返回，不抛异常，不清空中断状态，调</text><text fill="#424242" y="19.25" style="font-size: 14px; user-select: none;">用该方法不需要显式捕获异常</text></g><rect class="drag-section" fill="transparent" width="426" height="99" y="-49.5"/></g><g class="node node--218f2f20-5636-4768-b465-b2801f8d4a9d" transform="translate(537,852.75)"><rect class="node__content-container" rx="8" width="401" height="59" y="-29.5" fill="transparent"/><g class="node__content-text" transform="translate(20,-5.5)"><text fill="#424242" y="0" style="font-size: 14px; user-select: none;">当①等待时间到②线程被unpark③线程被中断④发生虚假</text><text fill="#424242" y="19.25" style="font-size: 14px; user-select: none;">唤醒时会返回(唤醒)</text></g><rect class="drag-section" fill="transparent" width="426" height="99" y="-49.5"/></g><g class="node node--29eb9bea-6f30-4cac-8cc4-e43c68d601fd" transform="translate(537,948.75)"><rect class="node__content-container" rx="8" width="401" height="79" y="-39.5" fill="transparent"/><g class="node__content-text" transform="translate(20,-15.5)"><text fill="#424242" y="0" style="font-size: 14px; user-select: none;">相比于Object . wait和notify不会丢失唤醒信号，即使</text><text fill="#424242" y="19.25" style="font-size: 14px; user-select: none;">unpark在park之前调用，也能防止指定线程阻塞。注意：</text><text fill="#424242" y="38.5" style="font-size: 14px; user-select: none;">多次调用unpark也只能发放一个permit！ </text></g><rect class="drag-section" fill="transparent" width="426" height="119" y="-59.5"/></g></g></svg>